<svg width="26" height="22" viewBox="0 0 26 22" fill="none" xmlns="http://www.w3.org/2000/svg">
<path d="M17.9992 10.7423C18.1574 10.3566 18.7165 10.3566 18.8747 10.7423L20.2875 14.1878C20.3361 14.3062 20.4328 14.3996 20.5546 14.4458L24.1173 15.7973C24.5184 15.9494 24.5184 16.5036 24.1173 16.6558L20.5546 18.0072C20.4328 18.0534 20.3361 18.1468 20.2875 18.2653L18.8747 21.7107C18.7165 22.0964 18.1574 22.0964 17.9992 21.7107L16.5864 18.2653C16.5378 18.1468 16.4411 18.0534 16.3194 18.0072L12.7566 16.6558C12.3555 16.5036 12.3555 15.9494 12.7566 15.7973L16.3194 14.4458C16.4411 14.3996 16.5378 14.3062 16.5864 14.1878L17.9992 10.7423Z" fill="#121517"/>
<path d="M21.6676 1.12615C21.7997 0.780214 22.2962 0.780214 22.4283 1.12615L23.2367 3.24281C23.2787 3.3528 23.3676 3.43907 23.4798 3.47875L25.6517 4.24654C26.0106 4.37343 26.0106 4.87373 25.6517 5.00062L23.4798 5.76842C23.3676 5.8081 23.2787 5.89436 23.2367 6.00435L22.4283 8.12101C22.2962 8.46695 21.7997 8.46695 21.6676 8.12101L20.8593 6.00435C20.8173 5.89436 20.7284 5.8081 20.6161 5.76842L18.4442 5.00062C18.0853 4.87373 18.0853 4.37343 18.4442 4.24654L20.6161 3.47875C20.7284 3.43907 20.8173 3.3528 20.8593 3.24281L21.6676 1.12615Z" fill="#121517"/>
<ellipse cx="8.05197" cy="2.42899" rx="2.35666" ry="2.32273" fill="#121517"/>
<path d="M10.665 5.31726C10.74 5.38547 10.8278 5.44053 10.9258 5.47604L15.4719 7.12206C16.1579 7.3706 16.1579 8.32674 15.4719 8.57528L10.9258 10.2213C10.7095 10.2996 10.5389 10.4679 10.4594 10.681L8.78933 15.1616C8.53722 15.8379 7.56703 15.8379 7.31488 15.1616L5.64405 10.681C5.56448 10.4679 5.39388 10.2996 5.17762 10.2213L0.632304 8.57528C-0.0538669 8.32679 -0.0538669 7.37055 0.632304 7.12206L5.17762 5.47604C5.27539 5.44064 5.3628 5.38519 5.43768 5.31726C6.13213 5.92828 7.04795 6.30019 8.05211 6.30019C9.05587 6.30015 9.97066 5.92789 10.665 5.31726Z" fill="#121517"/>
</svg>
