<svg width="971" height="181" viewBox="0 0 971 181" fill="none" xmlns="http://www.w3.org/2000/svg">
<mask id="mask0_792_7234" style="mask-type:alpha" maskUnits="userSpaceOnUse" x="0" y="0" width="971" height="181">
<path d="M144.998 87.5057C146.28 84.3322 150.814 84.3322 152.097 87.5057L163.553 115.852C163.947 116.827 164.731 117.595 165.718 117.975L194.608 129.094C197.86 130.346 197.86 134.905 194.608 136.157L165.718 147.276C164.731 147.656 163.947 148.425 163.553 149.399L152.097 177.745C150.814 180.919 146.28 180.919 144.998 177.745L133.541 149.399C133.147 148.425 132.363 147.656 131.376 147.276L102.486 136.157C99.2341 134.905 99.2341 130.346 102.486 129.094L131.376 117.975C132.363 117.595 133.147 116.827 133.541 115.852L144.998 87.5057Z" fill="white"/>
<path d="M174.744 8.39096C175.815 5.54481 179.841 5.54481 180.912 8.39096L187.467 25.8053C187.808 26.7102 188.528 27.4199 189.439 27.7464L207.05 34.0633C209.961 35.1072 209.961 39.2233 207.05 40.2672L189.439 46.5841C188.528 46.9106 187.808 47.6203 187.467 48.5252L180.912 65.9395C179.841 68.7857 175.815 68.7857 174.744 65.9395L168.189 48.5252C167.849 47.6203 167.128 46.9106 166.218 46.5841L148.606 40.2672C145.696 39.2233 145.696 35.1072 148.606 34.0633L166.218 27.7464C167.128 27.4199 167.849 26.7102 168.189 25.8053L174.744 8.39096Z" fill="white"/>
<circle cx="64.3377" cy="19.1097" r="19.1097" fill="white"/>
<path d="M85.5261 42.8723C86.1344 43.4335 86.8461 43.8864 87.6411 44.1786L124.504 57.7209C130.067 59.7657 130.067 67.6321 124.504 69.6769L87.6411 83.2192C85.8874 83.8637 84.5039 85.2478 83.859 87.0013L70.3167 123.865C68.2724 129.429 60.4053 129.428 58.3607 123.865L44.8122 87.0013C44.167 85.2482 42.7837 83.8635 41.0301 83.2192L4.17302 69.6769C-1.39101 67.6325 -1.39101 59.7653 4.17302 57.7209L41.0301 44.1786C41.8229 43.8873 42.5317 43.4312 43.1389 42.8723C48.77 47.8994 56.1962 50.9591 64.3387 50.9591C72.4781 50.9588 79.8959 47.8961 85.5261 42.8723Z" fill="white"/>
<path d="M970.447 31.762V148.126H945.844V31.762H970.447Z" fill="white"/>
<path d="M846.044 148.126H819.68L859.851 31.762H891.555L931.669 148.126H905.305L876.157 58.3529H875.248L846.044 148.126ZM844.396 102.387H906.669V121.592H844.396V102.387Z" fill="white"/>
<path d="M791.854 149.603C788.104 149.603 784.884 148.277 782.195 145.626C779.543 142.936 778.218 139.717 778.218 135.967C778.218 132.254 779.543 129.073 782.195 126.421C784.884 123.77 788.104 122.444 791.854 122.444C795.49 122.444 798.672 123.77 801.399 126.421C804.127 129.073 805.49 132.254 805.49 135.967C805.49 138.467 804.846 140.758 803.558 142.842C802.308 144.887 800.661 146.535 798.615 147.785C796.57 148.997 794.316 149.603 791.854 149.603Z" fill="white"/>
<path d="M635.328 31.7166H665.669L697.715 109.898H699.078L731.124 31.7166H761.465V148.08H737.601V72.3416H736.635L706.522 147.512H690.272L660.158 72.0575H659.192V148.08H635.328V31.7166Z" fill="white"/>
<path d="M593.61 65.1824C593.155 60.5991 591.204 57.0385 587.757 54.5006C584.31 51.9627 579.632 50.6938 573.723 50.6938C569.708 50.6938 566.318 51.262 563.553 52.3983C560.788 53.4968 558.666 55.0309 557.189 57.0006C555.75 58.9703 555.03 61.2052 555.03 63.7052C554.954 65.7885 555.39 67.6067 556.337 69.1597C557.322 70.7127 558.666 72.0574 560.371 73.1938C562.076 74.2923 564.045 75.2582 566.28 76.0915C568.515 76.887 570.901 77.5688 573.439 78.137L583.894 80.637C588.969 81.7733 593.629 83.2885 597.871 85.1824C602.113 87.0764 605.788 89.4059 608.894 92.1711C612 94.9362 614.405 98.1938 616.11 101.944C617.852 105.694 618.742 109.993 618.78 114.842C618.742 121.963 616.924 128.137 613.326 133.364C609.765 138.554 604.613 142.588 597.871 145.467C591.166 148.307 583.079 149.728 573.61 149.728C564.216 149.728 556.034 148.288 549.064 145.41C542.132 142.531 536.716 138.27 532.814 132.626C528.951 126.944 526.924 119.917 526.735 111.546H550.541C550.807 115.448 551.924 118.705 553.894 121.319C555.901 123.895 558.572 125.845 561.905 127.171C565.276 128.459 569.083 129.103 573.326 129.103C577.492 129.103 581.11 128.497 584.178 127.285C587.284 126.073 589.689 124.387 591.394 122.228C593.098 120.069 593.951 117.588 593.951 114.785C593.951 112.171 593.174 109.974 591.621 108.194C590.106 106.413 587.871 104.898 584.916 103.648C582 102.398 578.42 101.262 574.178 100.239L561.507 97.0574C551.697 94.6711 543.951 90.94 538.269 85.8643C532.587 80.7885 529.765 73.9514 529.803 65.3529C529.765 58.3074 531.64 52.1521 535.428 46.887C539.254 41.6218 544.5 37.512 551.166 34.5574C557.833 31.6029 565.409 30.1256 573.894 30.1256C582.53 30.1256 590.068 31.6029 596.507 34.5574C602.985 37.512 608.022 41.6218 611.621 46.887C615.219 52.1521 617.076 58.2506 617.189 65.1824H593.61Z" fill="white"/>
<path d="M510.243 31.7166V148.08H485.641V31.7166H510.243Z" fill="white"/>
<path d="M380.641 148.08V31.7166H426.55C435.338 31.7166 442.838 33.2885 449.05 36.4325C455.3 39.5385 460.054 43.9514 463.311 49.6711C466.607 55.3529 468.255 62.0385 468.255 69.7279C468.255 77.4552 466.588 84.1029 463.255 89.6711C459.921 95.2014 455.092 99.4438 448.766 102.398C442.478 105.353 434.864 106.83 425.925 106.83H395.186V87.0575H421.948C426.645 87.0575 430.546 86.4135 433.652 85.1256C436.758 83.8378 439.069 81.9059 440.584 79.3302C442.137 76.7544 442.914 73.5537 442.914 69.7279C442.914 65.8643 442.137 62.6067 440.584 59.9552C439.069 57.3037 436.739 55.2961 433.595 53.9325C430.489 52.531 426.569 51.8302 421.834 51.8302H405.243V148.08H380.641ZM443.482 95.1256L472.402 148.08H445.243L416.948 95.1256H443.482Z" fill="white"/>
<path d="M277.047 148.08V31.7166H322.956C331.782 31.7166 339.301 33.4022 345.513 36.7734C351.725 40.1067 356.46 44.7469 359.718 50.6938C363.013 56.6029 364.661 63.4211 364.661 71.1484C364.661 78.8756 362.994 85.6938 359.661 91.6029C356.327 97.512 351.498 102.114 345.172 105.41C338.884 108.705 331.271 110.353 322.331 110.353H293.07V90.637H318.354C323.089 90.637 326.99 89.8226 330.058 88.1938C333.165 86.5272 335.475 84.2355 336.99 81.3188C338.543 78.3643 339.32 74.9741 339.32 71.1484C339.32 67.2847 338.543 63.9135 336.99 61.0347C335.475 58.1181 333.165 55.8643 330.058 54.2734C326.952 52.6446 323.013 51.8302 318.24 51.8302H301.649V148.08H277.047Z" fill="white"/>
</mask>
<g mask="url(#mask0_792_7234)">
<rect x="-0.952881" y="-0.87439" width="995" height="182" fill="#121212"/>
<rect x="-0.952881" y="-0.87439" width="995" height="182" fill="#121212"/>
<rect x="-0.952881" y="-0.87439" width="995" height="182" fill="#121212"/>
<rect x="-0.952881" y="-0.87439" width="995" height="182" fill="#121212"/>
<path d="M-0.952881 -0.87439H994.047V181.126H-0.952881V-0.87439Z" fill="#121212"/>
<rect x="-0.952881" y="-0.87439" width="995" height="182" fill="#121212"/>
<path d="M-0.952881 -0.87439H994.047V181.126H-0.952881V-0.87439Z" fill="#121212"/>
</g>
</svg>
