<svg width="380" height="90" viewBox="0 0 380 90" fill="none" xmlns="http://www.w3.org/2000/svg">
<path d="M72.6884 43.9459C73.3272 42.3679 75.5852 42.3679 76.2239 43.9459L81.9297 58.0409C82.1258 58.5254 82.5163 58.9076 83.008 59.0966L97.396 64.6252C99.0158 65.2476 99.0158 67.5148 97.396 68.1372L83.008 73.6658C82.5163 73.8548 82.1258 74.237 81.9297 74.7215L76.2239 88.8165C75.5852 90.3945 73.3272 90.3945 72.6884 88.8165L66.9827 74.7215C66.7865 74.237 66.3961 73.8548 65.9043 73.6658L51.5163 68.1372C49.8966 67.5148 49.8966 65.2476 51.5163 64.6252L65.9043 59.0966C66.3961 58.9076 66.7865 58.5254 66.9827 58.0409L72.6884 43.9459Z" fill="#121517"/>
<path d="M87.503 4.60706C88.0366 3.19185 90.0416 3.19185 90.5752 4.60706L93.8396 13.2661C94.0092 13.7161 94.3682 14.069 94.8215 14.2313L103.593 17.3723C105.042 17.8914 105.042 19.9381 103.593 20.4571L94.8215 23.5981C94.3682 23.7605 94.0092 24.1133 93.8396 24.5633L90.5752 33.2224C90.0416 34.6376 88.0366 34.6376 87.503 33.2224L84.2386 24.5633C84.069 24.1133 83.71 23.7605 83.2567 23.5981L74.4856 20.4571C73.0361 19.9381 73.0361 17.8914 74.4856 17.3723L83.2567 14.2313C83.71 14.069 84.069 13.7161 84.2386 13.2661L87.503 4.60706Z" fill="#121517"/>
<ellipse cx="32.517" cy="9.93684" rx="9.51729" ry="9.50207" fill="#121517"/>
<path d="M43.0695 21.7525C43.3725 22.0316 43.7269 22.2568 44.1229 22.4021L62.4821 29.1358C65.2525 30.1526 65.2525 34.064 62.4821 35.0808L44.1229 41.8145C43.2495 42.135 42.5604 42.8232 42.2393 43.6951L35.4947 62.0249C34.4766 64.7915 30.5585 64.7914 29.5402 62.0249L22.7926 43.6951C22.4713 42.8234 21.7823 42.1349 20.909 41.8145L2.55291 35.0808C-0.218159 34.0642 -0.218159 30.1523 2.55291 29.1358L20.909 22.4021C21.3038 22.2572 21.6568 22.0304 21.9593 21.7525C24.7637 24.2522 28.4622 25.7736 32.5175 25.7736C36.5712 25.7734 40.2655 24.2505 43.0695 21.7525Z" fill="#121517"/>
<path d="M316.89 15.7082H332.001L347.96 54.5831H348.64L364.599 15.7082H379.71V73.5685H367.825V35.9085H367.344L352.347 73.286H344.253L329.256 35.7672H328.775V73.5685H316.89V15.7082Z" fill="#121517"/>
<path d="M296.112 32.3487C295.886 30.0697 294.914 28.2992 293.198 27.0373C291.481 25.7754 289.151 25.1444 286.208 25.1444C284.209 25.1444 282.52 25.4269 281.143 25.992C279.766 26.5382 278.71 27.301 277.974 28.2804C277.257 29.2598 276.898 30.3711 276.898 31.6141C276.861 32.6501 277.078 33.5541 277.549 34.3263C278.04 35.0986 278.71 35.7672 279.558 36.3322C280.407 36.8785 281.388 37.3587 282.501 37.7731C283.614 38.1686 284.803 38.5077 286.067 38.7902L291.274 40.0333C293.801 40.5983 296.122 41.3517 298.235 42.2935C300.348 43.2352 302.177 44.3935 303.724 45.7685C305.271 47.1434 306.469 48.7632 307.318 50.6278C308.186 52.4925 308.629 54.6302 308.648 57.0411C308.629 60.582 307.724 63.6521 305.932 66.2513C304.158 68.8316 301.593 70.8375 298.235 72.269C294.896 73.6816 290.868 74.3879 286.152 74.3879C281.473 74.3879 277.398 73.6722 273.927 72.2407C270.475 70.8093 267.777 68.6904 265.834 65.884C263.91 63.0588 262.901 59.5649 262.806 55.4024H274.663C274.795 57.3424 275.352 58.9622 276.333 60.2618C277.332 61.5426 278.662 62.5126 280.322 63.1718C282.001 63.8122 283.897 64.1324 286.01 64.1324C288.085 64.1324 289.887 63.831 291.415 63.2283C292.962 62.6256 294.16 61.7874 295.009 60.7138C295.858 59.6403 296.282 58.4066 296.282 57.0128C296.282 55.7132 295.895 54.6208 295.122 53.7356C294.367 52.8503 293.254 52.0969 291.783 51.4754C290.33 50.8538 288.548 50.2888 286.435 49.7803L280.124 48.1981C275.238 47.0116 271.381 45.1563 268.551 42.6325C265.721 40.1086 264.316 36.7089 264.334 32.4335C264.316 28.9302 265.249 25.8695 267.136 23.2515C269.041 20.6335 271.654 18.5899 274.974 17.1208C278.294 15.6517 282.067 14.9171 286.293 14.9171C290.594 14.9171 294.349 15.6517 297.556 17.1208C300.781 18.5899 303.291 20.6335 305.083 23.2515C306.875 25.8695 307.799 28.9019 307.856 32.3487H296.112Z" fill="#121517"/>
<path d="M254.593 15.7082V73.5685H242.34V15.7082H254.593Z" fill="#121517"/>
<path d="M190.047 73.5685V15.7082H212.911C217.288 15.7082 221.023 16.4898 224.117 18.0531C227.23 19.5976 229.597 21.7918 231.22 24.6359C232.861 27.4611 233.681 30.7854 233.681 34.6089C233.681 38.4512 232.851 41.7567 231.191 44.5254C229.531 47.2752 227.126 49.3847 223.975 50.8538C220.844 52.3229 217.052 53.0575 212.6 53.0575H197.291V43.2258H210.619C212.958 43.2258 214.901 42.9056 216.448 42.2652C217.995 41.6248 219.146 40.6642 219.901 39.3835C220.674 38.1027 221.061 36.5112 221.061 34.6089C221.061 32.6877 220.674 31.0679 219.901 29.7495C219.146 28.4311 217.986 27.4328 216.42 26.7548C214.873 26.0579 212.921 25.7094 210.562 25.7094H202.3V73.5685H190.047ZM221.344 47.2376L235.747 73.5685H222.221L208.129 47.2376H221.344Z" fill="#121517"/>
<path d="M138.454 73.5685V15.7082H161.318C165.713 15.7082 169.458 16.5463 172.552 18.2226C175.646 19.8801 178.004 22.1873 179.626 25.1444C181.268 28.0826 182.088 31.4729 182.088 35.3152C182.088 39.1575 181.258 42.5477 179.598 45.4859C177.938 48.4242 175.533 50.7126 172.382 52.3512C169.251 53.9898 165.459 54.8091 161.007 54.8091H146.433V45.0056H159.026C161.384 45.0056 163.327 44.6007 164.855 43.7908C166.402 42.9621 167.553 41.8226 168.307 40.3723C169.081 38.9032 169.468 37.2175 169.468 35.3152C169.468 33.394 169.081 31.7177 168.307 30.2863C167.553 28.836 166.402 27.7153 164.855 26.9243C163.308 26.1144 161.346 25.7094 158.969 25.7094H150.706V73.5685H138.454Z" fill="#121517"/>
</svg>
